<?xml version="1.0" encoding="UTF-8" standalone="no"?>
<!-- Created with Inkscape (http://www.inkscape.org/) -->

<svg
   xmlns:dc="http://purl.org/dc/elements/1.1/"
   xmlns:cc="http://creativecommons.org/ns#"
   xmlns:rdf="http://www.w3.org/1999/02/22-rdf-syntax-ns#"
   xmlns:svg="http://www.w3.org/2000/svg"
   xmlns="http://www.w3.org/2000/svg"
   xmlns:sodipodi="http://sodipodi.sourceforge.net/DTD/sodipodi-0.dtd"
   xmlns:inkscape="http://www.inkscape.org/namespaces/inkscape"
   width="757.46661"
   height="757.46661"
   viewBox="0 0 7.8902777 7.8902775"
   version="1.1"
   id="svg9"
   sodipodi:docname="icon.svg"
   inkscape:version="0.92.3 (2405546, 2018-03-11)"
   inkscape:export-filename="/home/octo/Downloads/assignmentFormatter/desktop/icon.png"
   inkscape:export-xdpi="90"
   inkscape:export-ydpi="90">
  <defs
     id="defs2" />
  <sodipodi:namedview
     inkscape:document-units="in"
     pagecolor="#ffffff"
     bordercolor="#666666"
     borderopacity="1.0"
     inkscape:pageopacity="0.0"
     inkscape:pageshadow="2"
     inkscape:zoom="0.36"
     inkscape:cx="-269.14637"
     inkscape:cy="384.93297"
     inkscape:current-layer="layer1"
     id="namedview4"
     showgrid="false"
     units="px"
     showborder="true"
     borderlayer="false"
     inkscape:showpageshadow="true"
     inkscape:window-width="1280"
     inkscape:window-height="969"
     inkscape:window-x="0"
     inkscape:window-y="0"
     inkscape:window-maximized="1"
     inkscape:snap-global="false"
     inkscape:snap-bbox="false"
     inkscape:bbox-nodes="false"
     inkscape:bbox-paths="false"
     inkscape:snap-bbox-edge-midpoints="false"
     inkscape:snap-object-midpoints="true"
     fit-margin-top="0"
     fit-margin-left="0"
     fit-margin-right="0"
     fit-margin-bottom="0"
     inkscape:snap-page="true" />
  <metadata
     id="metadata6">
    <rdf:RDF>
      <cc:Work
         rdf:about="">
        <dc:format>image/svg+xml</dc:format>
        <dc:type
           rdf:resource="http://purl.org/dc/dcmitype/StillImage" />
        <dc:title />
      </cc:Work>
    </rdf:RDF>
  </metadata>
  <g
     inkscape:label="Layer 1"
     inkscape:groupmode="layer"
     id="layer1"
     transform="translate(-0.84023181,-2.1274569)">
    <g
       id="g986">
      <rect
         y="2.1274569"
         x="0.84023184"
         height="7.8902798"
         width="7.8902798"
         id="rect944"
         style="opacity:1;fill:#54adba;fill-opacity:1;stroke:none;stroke-width:0.06211113;stroke-miterlimit:4;stroke-dasharray:none;stroke-opacity:1" />
      <path
         style="stroke-width:0.01162185"
         inkscape:connector-curvature="0"
         d="M 4.6371973,6.0493498 C 4.385003,6.8652037 4.1769717,7.5415959 4.1734851,7.5543802 c -0.00581,0.022083 0,0.023245 0.1441112,0.023245 H 4.4675181 L 4.928906,6.0807288 c 0.2545186,-0.8228279 0.4613878,-1.49922 0.4613878,-1.505031 0,-0.00464 -0.066244,-0.00813 -0.1475975,-0.00813 H 5.0939364 Z m -2.0187169,-0.522984 -1.1273202,0.4102514 -0.00349,0.1510846 -0.00349,0.1510837 0.049973,0.01743 c 0.045325,0.015112 2.1918826,0.7937733 2.2267482,0.8065574 0.010458,0.00469 0.013946,-0.031379 0.013946,-0.1557328 V 6.7443368 L 3.127518,6.5153861 C 2.7707268,6.3887078 2.3569887,6.2434346 2.2093911,6.1911362 2.0606312,6.1388379 1.9386017,6.0935123 1.9386017,6.0900263 c 0,-0.00352 0.412576,-0.1522468 0.9181269,-0.3312233 L 3.7748554,5.433391 V 5.2730093 c 0,-0.1197051 -0.00349,-0.1592194 -0.013946,-0.1580573 -0.00813,0.00116 -0.5218215,0.1859497 -1.142429,0.4114138 z M 5.7970588,5.2741716 V 5.433391 l 0.9123159,0.325412 c 0.5020643,0.1778142 0.912316,0.3277365 0.912316,0.3312233 0,0.00352 -0.405603,0.1499214 -0.9018562,0.3254114 -0.4950912,0.1754908 -0.906505,0.3219263 -0.912316,0.3265746 -0.00698,0.00352 -0.0093,0.070892 -0.00813,0.1638679 L 5.802866,7.0639376 6.9452947,6.6501997 8.0865612,6.2364618 V 6.0888639 c 0,-0.1301652 -0.00233,-0.1487599 -0.019757,-0.1557327 C 8.0098572,5.9110482 5.8063525,5.1137899 5.802866,5.1137899 c -0.00349,0 -0.00581,0.072055 -0.00581,0.1603817 z"
         id="path927" />
    </g>
  </g>
</svg>
