<svg version="1" xmlns="http://www.w3.org/2000/svg" width="933.333" height="933.333" viewBox="0 0 700.000000 700.000000"><path d="M350.2 353.5c-21.7 70.2-39.6 128.4-39.9 129.5-.5 1.9 0 2 12.4 2h12.9l39.7-128.8c21.9-70.8 39.7-129 39.7-129.5 0-.4-5.7-.7-12.7-.7h-12.8l-39.3 127.5zM176.5 308.5l-97 35.3-.3 13-.3 13 4.3 1.5c3.9 1.3 188.6 68.3 191.6 69.4.9.4 1.2-2.7 1.2-13.4v-14l-55.7-19.7c-30.7-10.9-66.3-23.4-79-27.9-12.8-4.5-23.3-8.4-23.3-8.7 0-.3 35.5-13.1 79-28.5l79-28v-13.8c0-10.3-.3-13.7-1.2-13.6-.7.1-44.9 16-98.3 35.4zM450 286.8v13.7l78.5 28c43.2 15.3 78.5 28.2 78.5 28.5 0 .3-34.9 12.9-77.6 28-42.6 15.1-78 27.7-78.5 28.1-.6.3-.8 6.1-.7 14.1l.3 13.6 98.3-35.6 98.2-35.6v-12.7c0-11.2-.2-12.8-1.7-13.4-4.9-1.9-194.5-70.5-194.8-70.5-.3 0-.5 6.2-.5 13.8z"/></svg>